<?xml version="1.0" encoding="utf-8"?>
<!-- Generator: Adobe Illustrator 26.4.1, SVG Export Plug-In . SVG Version: 6.00 Build 0)  -->
<svg version="1.1" id="Layer_1" xmlns="http://www.w3.org/2000/svg" xmlns:xlink="http://www.w3.org/1999/xlink" x="0px" y="0px"
	 viewBox="0 0 380.85 78.2" style="enable-background:new 0 0 380.85 78.2;" xml:space="preserve">
<style type="text/css">
	.st0{fill:#00D2B9;}
</style>
<path d="M364.98,12.28H341.8l-16.06,52.98h15.3l3.52-12.66h17.01v0.09l3.61,12.66h15.68L364.98,12.28L364.98,12.28z M347.12,43.98
	l5.99-21.38l5.99,21.38H347.12z"/>
<path d="M149.47,12.38h-47.61v13.03h22.05L99.77,65.35h49.99V52.32h-22.52L149.47,12.38z"/>
<path d="M315.95,43.41c2.38-1.31,4.37-3.19,5.7-5.63c1.42-2.72,2.18-5.72,2.09-8.81c-0.09-3.09-0.95-6-2.47-8.72
	c-1.71-2.63-4.18-4.69-7.03-6c-3.04-1.41-6.65-2.16-10.74-2.16h-30.12v53.26h15.3V42.19l15.39,23.35h17.77l-13.87-20.07l0.86-0.09
	C311.3,45.29,313.77,44.63,315.95,43.41L315.95,43.41z M306.16,35.63c-1.24,1.22-2.85,1.97-4.66,1.97h-12.83V24.57h12.83
	c1.71,0,3.42,0.66,4.66,1.88c1.24,1.22,1.9,2.91,1.9,4.59S307.4,34.41,306.16,35.63z"/>
<path d="M238.41,10.69c-16.44,0-29.36,12.38-29.36,28.13c0,15.75,12.92,28.13,29.36,28.13c16.44,0,29.27-12.38,29.27-28.13
	C267.77,23.07,254.85,10.69,238.41,10.69z M248.67,49.04c-2.76,2.53-6.46,4.03-10.26,4.03c-2.85,0-5.61-0.84-7.98-2.34
	c-2.38-1.59-4.18-3.75-5.32-6.38c-1.14-2.63-1.42-5.44-0.86-8.16c0.57-2.72,1.9-5.25,3.9-7.31c2-1.97,4.56-3.38,7.41-3.84
	c2.76-0.56,5.7-0.28,8.36,0.84c2.66,1.03,4.85,2.91,6.46,5.25c1.62,2.34,2.47,5.06,2.47,7.88
	C252.85,42.76,251.33,46.32,248.67,49.04L248.67,49.04z"/>
<path d="M188.04,45.1c0,2.16-0.86,4.31-2.47,5.81c-1.62,1.59-3.71,2.44-5.89,2.44c-2.18,0-4.37-0.84-5.89-2.44
	c-1.52-1.59-2.47-3.66-2.47-5.81V12.38h-15.39V43.6c0,6.19,2.47,12.1,6.94,16.5c4.47,4.41,10.45,6.85,16.82,6.85
	c6.27,0,12.35-2.44,16.82-6.85c4.46-4.41,6.94-10.31,6.94-16.5V12.38h-15.39V45.1L188.04,45.1z"/>
<path d="M376.84,13.66h0.03l0.88,3.14h0.88l0.86-3.14h0.03v3.14h1.19v-4.48h-1.67l-0.77,3h-0.04l-0.77-3h-1.74v4.48h1.12V13.66z"/>
<path d="M372.5,16.8h1.21v-3.45h1.53v-1.03H371v1.03h1.5V16.8z"/>
<path class="st0" d="M65.94,78.2H18.61c-2.47,0-4.56-1.5-5.42-3.75c-0.86-2.25-0.1-4.78,1.81-6.28l10.55-8.53H5.78
	c-2.47,0-4.56-1.5-5.42-3.75c-0.86-2.25-0.19-4.69,1.71-6.28l20.43-16.78c1.71-1.41,4.18-1.13,5.61,0.47
	c1.43,1.69,1.14,4.13-0.48,5.53L11.87,51.85h23.47l31.93-25.69H13.29c-3.52,0-6.84-1.41-9.41-3.84c-2.47-2.44-3.8-5.72-3.8-9.19
	s1.33-6.75,3.9-9.28C6.45,1.41,9.78,0,13.29,0h45.99c2.47,0,4.56,1.5,5.42,3.75c0.86,2.25,0.1,4.69-1.81,6.28l-10.26,8.35h20.72
	c2.47,0,4.56,1.5,5.42,3.75c0.85,2.25,0.1,4.78-1.8,6.28L47.79,51.85h18.15c3.52,0,6.84,1.41,9.31,3.84c2.47,2.44,3.9,5.72,3.9,9.28
	v0.19c0,3.47-1.33,6.75-3.9,9.28C72.78,76.89,69.45,78.2,65.94,78.2L65.94,78.2z M24.79,70.42h41.15c1.43,0,2.76-0.56,3.8-1.5
	c1.04-1.03,1.52-2.34,1.52-3.75v-0.19c0-1.41-0.57-2.72-1.52-3.75c-1.05-1.03-2.38-1.5-3.8-1.5H38.09L24.79,70.42L24.79,70.42z
	 M13.29,7.78c-1.43,0-2.76,0.56-3.8,1.5c-1.05,1.03-1.52,2.34-1.52,3.75c0,1.41,0.57,2.72,1.52,3.75c1.05,1.03,2.38,1.5,3.8,1.5
	h26.89L53.2,7.78H13.29z"/>
</svg>
